<?xml version="1.0" standalone="no"?>
<!DOCTYPE svg PUBLIC "-//W3C//DTD SVG 20010904//EN"
 "http://www.w3.org/TR/2001/REC-SVG-20010904/DTD/svg10.dtd">
<svg version="1.0" xmlns="http://www.w3.org/2000/svg"
 width="1080.000000pt" height="1080.000000pt" viewBox="0 0 1080.000000 1080.000000"
 preserveAspectRatio="xMidYMid meet">

<g transform="translate(0.000000,1080.000000) scale(0.100000,-0.100000)"
fill="#000000" stroke="none">
<path d="M2865 5592 c-307 -603 -569 -1116 -581 -1139 -13 -23 -24 -44 -24
-47 0 -3 102 -6 228 -6 l227 0 354 696 354 695 51 -98 c29 -54 189 -367 356
-695 l304 -598 228 0 228 0 -61 123 c-70 139 -1100 2161 -1103 2164 -1 2 -254
-491 -561 -1095z"/>
<path d="M5422 6675 c-478 -88 -848 -459 -933 -935 -18 -103 -15 -316 6 -415
86 -412 371 -734 765 -865 165 -55 239 -60 903 -60 l597 0 0 205 0 204 -642 3
-643 3 -80 27 c-234 81 -404 251 -482 483 -23 70 -27 96 -27 215 -1 115 2 146
22 210 82 260 268 440 529 512 75 21 100 22 701 26 l622 3 0 200 0 199 -632
-1 c-480 -1 -651 -4 -706 -14z"/>
<path d="M7090 5931 c0 -456 4 -800 10 -861 32 -310 231 -551 530 -641 74 -23
84 -23 713 -27 l637 -3 0 205 0 206 -622 2 -623 3 -50 24 c-63 32 -124 92
-155 156 l-25 50 -3 823 -2 822 -205 0 -205 0 0 -759z"/>
<path d="M3447 4045 c-64 -129 -117 -237 -117 -240 0 -3 74 -5 165 -5 91 0
165 2 165 5 0 3 -7 17 -16 30 -15 24 -21 25 -110 25 -52 0 -94 4 -94 9 0 20
120 262 127 258 4 -3 44 -78 88 -166 l80 -161 37 0 38 0 -120 240 c-66 132
-121 240 -123 240 -1 0 -55 -106 -120 -235z"/>
<path d="M7190 4093 l-95 -188 -3 173 -2 172 -35 0 -35 0 0 -225 0 -225 50 0
50 0 82 171 83 171 85 -171 85 -171 52 0 53 0 0 225 0 225 -35 0 -35 0 -2
-177 -3 -178 -98 193 c-53 105 -98 192 -100 192 -1 0 -45 -84 -97 -187z"/>
<path d="M7747 4045 c-64 -129 -117 -237 -117 -240 0 -3 74 -5 165 -5 91 0
165 2 165 5 0 3 -7 17 -16 30 -15 24 -21 25 -110 25 -52 0 -94 4 -94 9 0 20
120 262 127 258 4 -3 44 -78 88 -166 l80 -161 37 0 38 0 -120 240 c-66 132
-121 240 -123 240 -1 0 -55 -106 -120 -235z"/>
<path d="M2847 4245 c-31 -61 -207 -435 -207 -441 0 -3 16 -4 37 -2 l36 3 71
152 c39 84 73 152 76 153 3 0 25 -39 48 -86 24 -48 45 -84 48 -82 2 3 22 42
44 87 22 44 42 81 45 81 3 0 39 -70 80 -155 l74 -155 35 0 c20 0 36 3 35 8 0
4 -51 111 -113 237 l-113 230 -42 -87 c-22 -49 -43 -88 -46 -88 -3 0 -24 39
-49 87 l-43 87 -16 -29z"/>
<path d="M2264 4240 c-44 -18 -78 -89 -67 -142 8 -42 64 -98 97 -98 22 0 26 4
26 30 0 19 -5 30 -14 30 -19 0 -46 39 -46 66 0 13 12 32 26 43 24 19 40 21
160 21 l134 0 0 30 0 30 -147 -1 c-82 0 -158 -4 -169 -9z"/>
<path d="M3880 4025 l0 -225 35 0 35 0 0 195 0 195 105 0 c92 0 108 -3 125
-20 20 -20 24 -36 20 -75 -3 -34 -21 -45 -71 -45 -27 0 -49 -4 -49 -10 0 -5
26 -62 57 -125 l58 -115 38 0 39 0 -46 86 c-50 94 -53 104 -32 104 8 0 28 16
45 35 26 30 31 44 31 86 0 58 -20 99 -60 123 -23 13 -57 16 -179 16 l-151 0 0
-225z"/>
<path d="M4350 4220 l0 -30 80 0 80 0 0 -195 0 -195 35 0 35 0 0 195 0 195 80
0 80 0 0 30 0 30 -195 0 -195 0 0 -30z"/>
<path d="M5164 4240 c-26 -10 -59 -55 -67 -91 -15 -62 43 -149 99 -149 20 0
24 5 24 30 0 19 -5 30 -14 30 -19 0 -46 39 -46 66 0 13 12 32 26 43 24 19 40
21 160 21 l134 0 0 30 0 30 -147 -1 c-82 0 -158 -4 -169 -9z"/>
<path d="M5694 4231 c-76 -35 -134 -127 -134 -212 0 -49 42 -131 84 -166 88
-72 221 -68 304 10 90 83 87 242 -5 329 -61 58 -169 75 -249 39z m187 -76
c128 -84 64 -287 -91 -287 -98 0 -167 76 -158 172 12 125 143 185 249 115z"/>
<path d="M6100 4025 l0 -225 30 0 30 0 2 193 3 192 138 3 137 3 0 29 0 30
-170 0 -170 0 0 -225z"/>
<path d="M6540 4220 l0 -30 80 0 80 0 0 -195 0 -195 35 0 35 0 0 195 0 195 80
0 80 0 0 30 0 30 -195 0 -195 0 0 -30z"/>
<path d="M8180 4025 l0 -225 35 0 35 0 0 195 0 195 105 0 c92 0 108 -3 125
-20 20 -20 24 -36 20 -75 -3 -34 -21 -45 -71 -45 -27 0 -49 -4 -49 -10 0 -5
26 -62 57 -125 l58 -115 38 0 39 0 -46 86 c-50 94 -53 104 -32 104 8 0 28 16
45 35 26 30 31 44 31 86 0 58 -20 99 -60 123 -23 13 -57 16 -179 16 l-151 0 0
-225z"/>
<path d="M8670 4025 l0 -225 170 0 170 0 0 30 0 29 -137 3 -138 3 0 160 0 160
138 3 137 3 0 29 0 30 -170 0 -170 0 0 -225z"/>
<path d="M2470 4030 c0 -22 8 -38 25 -52 16 -12 25 -29 25 -46 0 -61 -30 -72
-189 -72 l-131 0 0 -30 0 -30 148 0 c157 0 181 6 214 50 54 73 18 176 -69 204
-21 7 -23 4 -23 -24z"/>
<path d="M5370 4030 c0 -22 8 -38 25 -52 16 -12 25 -29 25 -46 0 -61 -30 -72
-189 -72 l-131 0 0 -30 0 -30 148 0 c157 0 181 6 214 50 54 73 18 176 -69 204
-21 7 -23 4 -23 -24z"/>
<path d="M6217 4044 c-4 -4 -7 -20 -7 -36 l0 -29 113 3 112 3 0 30 0 30 -106
3 c-58 1 -108 -1 -112 -4z"/>
<path d="M8787 4044 c-4 -4 -7 -20 -7 -36 l0 -29 113 3 112 3 0 30 0 30 -106
3 c-58 1 -108 -1 -112 -4z"/>
</g>
</svg>
